<svg xmlns="http://www.w3.org/2000/svg" width="256" height="256" viewBox="0 0 100 100"><rect width="100" height="100" rx="20" fill="#26abff"></rect><path d="M38.95 32.63L46.85 32.63L46.85 67.53L39.85 67.53L39.85 44.83L30.50 67.53L25.20 67.53L15.80 44.83L15.80 67.53L8.80 67.53L8.80 32.63L16.75 32.63L27.85 58.58L38.95 32.63ZM65.80 67.88Q62.15 67.88 59.22 66.63Q56.30 65.38 54.60 63.03Q52.90 60.68 52.85 57.48L52.85 57.48L60.35 57.48Q60.50 59.63 61.88 60.88Q63.25 62.13 65.65 62.13L65.65 62.13Q68.10 62.13 69.50 60.95Q70.90 59.78 70.90 57.88L70.90 57.88Q70.90 56.33 69.95 55.33Q69 54.33 67.58 53.75Q66.15 53.18 63.65 52.48L63.65 52.48Q60.25 51.48 58.13 50.50Q56 49.53 54.47 47.55Q52.95 45.58 52.95 42.28L52.95 42.28Q52.95 39.18 54.50 36.88Q56.05 34.58 58.85 33.35Q61.65 32.13 65.25 32.13L65.25 32.13Q70.65 32.13 74.03 34.75Q77.40 37.38 77.75 42.08L77.75 42.08L70.05 42.08Q69.95 40.28 68.53 39.10Q67.10 37.93 64.75 37.93L64.75 37.93Q62.70 37.93 61.47 38.98Q60.25 40.03 60.25 42.03L60.25 42.03Q60.25 43.43 61.17 44.35Q62.10 45.28 63.47 45.85Q64.85 46.43 67.35 47.18L67.35 47.18Q70.75 48.18 72.90 49.18Q75.05 50.18 76.60 52.18Q78.15 54.18 78.15 57.43L78.15 57.43Q78.15 60.23 76.70 62.63Q75.25 65.03 72.45 66.45Q69.65 67.88 65.80 67.88L65.80 67.88ZM84.20 32.63L91.20 32.63L91.20 67.53L84.20 67.53L84.20 32.63Z" fill="#ffffff"></path></svg>